<?xml version="1.0" encoding="UTF-8" standalone="no"?>
<svg
   xmlns:dc="http://purl.org/dc/elements/1.1/"
   xmlns:cc="http://creativecommons.org/ns#"
   xmlns:rdf="http://www.w3.org/1999/02/22-rdf-syntax-ns#"
   xmlns:svg="http://www.w3.org/2000/svg"
   xmlns="http://www.w3.org/2000/svg"
   viewBox="0 0 1122.52 793.70001"
   height="793.70001"
   width="1122.52"
   xml:space="preserve"
   id="svg2"
   version="1.1"><metadata
     id="metadata8"><rdf:RDF><cc:Work
         rdf:about=""><dc:format>image/svg+xml</dc:format><dc:type
           rdf:resource="http://purl.org/dc/dcmitype/StillImage" /></cc:Work></rdf:RDF></metadata><defs
     id="defs6"><clipPath
       id="clipPath18"
       clipPathUnits="userSpaceOnUse"><path
         id="path16"
         d="M 0,595.275 H 841.89 V 0 H 0 Z" /></clipPath><clipPath
       id="clipPath28"
       clipPathUnits="userSpaceOnUse"><path
         id="path26"
         d="M -103.108,71.3223 H 103.108 V -71.3213 h -206.216 z" /></clipPath><clipPath
       id="clipPath60"
       clipPathUnits="userSpaceOnUse"><path
         id="path58"
         d="M -103.108,71.3223 H 103.108 V -71.3213 h -206.216 z" /></clipPath><clipPath
       id="clipPath92"
       clipPathUnits="userSpaceOnUse"><path
         id="path90"
         d="M -103.108,71.3223 H 103.108 V -71.3213 h -206.216 z" /></clipPath><clipPath
       id="clipPath124"
       clipPathUnits="userSpaceOnUse"><path
         id="path122"
         d="M -103.108,71.3223 H 103.108 V -71.3213 h -206.216 z" /></clipPath><clipPath
       id="clipPath156"
       clipPathUnits="userSpaceOnUse"><path
         id="path154"
         d="M -103.108,71.3223 H 103.108 V -71.3213 h -206.216 z" /></clipPath><clipPath
       id="clipPath188"
       clipPathUnits="userSpaceOnUse"><path
         id="path186"
         d="M -103.108,71.3223 H 103.108 V -71.3213 h -206.216 z" /></clipPath><clipPath
       id="clipPath220"
       clipPathUnits="userSpaceOnUse"><path
         id="path218"
         d="M -103.108,71.3223 H 103.108 V -71.3213 h -206.216 z" /></clipPath><clipPath
       id="clipPath252"
       clipPathUnits="userSpaceOnUse"><path
         id="path250"
         d="M -103.108,71.3223 H 103.108 V -71.3213 h -206.216 z" /></clipPath></defs><g
     transform="matrix(1.3333333,0,0,-1.3333333,0,793.7)"
     id="g10"><g
       id="g12"><g
         clip-path="url(#clipPath18)"
         id="g14"><g
           transform="matrix(1,0,0,-1,154.6626,142.64404)"
           id="g20"><g
             id="g22"><g
               clip-path="url(#clipPath28)"
               id="g24"><text
                 id="text50"
                 style="font-variant:normal;font-weight:normal;font-stretch:normal;font-size:12px;font-family:'Myriad Pro';-inkscape-font-specification:MyriadPro-Regular;writing-mode:lr-tb;fill:#000000;fill-opacity:1;fill-rule:nonzero;stroke:none"
                 transform="translate(-103.0967,-61.2773)"><tspan
                   id="tspan30"
                   y="0"
                   x="0 5.8800001 12.54 15.348 20.1 22.643999 25.452 30.204 32.748001 38.532001 45.192001 47.736 54.937199 61.7052 68.293198 75.121201 81.133202 86.161201 88.7052 91.693199 94.5252 97.357201 103.9692 108.7212 112.6932 116.556 122.292 126.1932 132.7812 136.7052 141.7332 144.27721 149.81039 152.61839 155.45039 161.4624 164.00639 167.97839 174.6384 180.3744 184.34641 186.8904 195.67439 201.4584">This is an Adobe® Illustrator® File that was</tspan><tspan
                   id="tspan32"
                   y="14.4"
                   x="0 4.7519999 10.44 16.091999 22.104 28.872 31.416 40.248001 43.056 47.028 53.688 60.276001 66.888 70.860001 73.403999 79.788002 87.779999 93.624001 96.167999 102.996 109.584 116.196 120.096 126.108 132.72 136.65601">saved without PDF Content.</tspan><tspan
                   id="tspan34"
                   y="28.799999"
                   x="0 5.112 11.7 14.244 20.568001 23.4 29.184 34.487999 40.5 43.043999 49.632 53.556 56.099998 62.688 69.515999 75.528 82.188004 84.732002 88.704002 95.363998 98.171997 102.924 105.468 111.744 114.576 120.588 123.132 125.94 132.60001 135.144 141.73199 145.70399 152.364 158.37601">To Place or open this fle in other</tspan><tspan
                   id="tspan36"
                   y="43.200001"
                   x="0 5.7839999 12.612 19.440001 22.271999 25.08 30.455999 36.192001 40.164001 42.972 49.560001 56.220001 60.841202 63.325199 65.869202 68.6772 72.6492 75.193199 79.945198 86.605202 93.193199 99.805199 102.6372 109.4052 111.9492 118.7772 124.7892 127.3332 131.13721 137.4852 141.1692 145.9212 151.60921 157.2612 163.27319 170.0412 172.58521 176.0892 179.8932 186.4812">applications, it should be re-saved from</tspan><tspan
                   id="tspan38"
                   y="57.599998"
                   x="0 7.1999998 13.968 20.556 27.384001 33.396 35.939999 38.929199 41.7612 44.593201 51.2052 55.957199 59.929199 63.793201 69.529198 73.429199 80.017197 83.9412 86.485199 95.3172 98.125198 102.0972 108.7572 111.3012 115.2732 121.9332 127.9452 130.4892 134.49719 141.42 145.2252 151.2372 156.97321 160.8732 166.88519 169.4292 175.8132 183.80521">Adobe Illustrator with the &quot;Create PDF</tspan><tspan
                   id="tspan40"
                   y="72"
                   x="0 6.8280001 13.416 23.424 30.252001 35.987999 39.959999 42.768002 49.596001 52.428001 58.439999 60.984001 66.515999 69.323997 72.155998 78.167999 82.211998 84.755997 91.344002 98.171997 102.144 104.952 111.54 118.2 120.744 124.716 131.328 135.3 141.96001 147.972 154.74001 157.284 163.87199 170.532 173.01601 175.06799 180.948 187.608 190.416">Compatible File&quot; option turned on. This</tspan><tspan
                   id="tspan42"
                   y="86.400002"
                   x="0 6.5879998 13.416 17.388 20.195999 26.784 33.444 35.987999 38.796001 43.548 46.091999 48.900002 55.560001 58.104 62.076 68.736 74.748001 77.292 80.279999 83.112 85.944 92.556 97.307999 101.28 105.144 110.88 114.78 121.368 125.292 127.836 135.73199 141.468 145.44 148.248 153.89999 159.912 162.45599 167.92799 174.51601 178.48801 188.496 194.2308">option is in the Illustrator Native Format</tspan><tspan
                   id="tspan44"
                   y="100.8"
                   x="0 8.2679996 15.096 19.068001 21.875999 28.464001 35.124001 39.875999 42.419998 49.188 51.995998 57.779999 60.612 67.199997 73.907997 76.452003 83.279999 89.699997 95.255997 97.739998 100.284 109.116 115.776 118.584 123.96 130.62 133.164 138.948 145.776 152.604 158.616 164.39999 168.32401 173.076 175.62 184.452 191.112 197.12399">Options dialog box, which appears when</tspan><tspan
                   id="tspan46"
                   y="115.2"
                   x="0 4.7519999 10.44 16.212 19.02 25.68 32.388 34.931999 40.716 47.375999 49.919998 57.119999 63.888 70.475998 77.304001 83.316002 85.860001 88.848 91.68 94.512001 101.124 105.876 109.848 113.712 119.448 123.3468 129.9348 133.8588 136.4028 142.6788 145.5108 151.5228 154.0668 160.6788 165.4308 168.2388 174.8988 181.6068 184.1508 188.1228 194.78281">saving an Adobe Illustrator fle using the</tspan><tspan
                   id="tspan48"
                   y="129.60001"
                   x="0 5.9520001 11.64 17.292 23.304001 25.848 33.119999 37.872002 40.416 45.7188 52.306801 62.3148 72.3228 78.106796 84.7668 91.414803">Save As command.</tspan></text>
</g></g></g><g
           transform="matrix(1,0,0,-1,154.6626,313.81631)"
           id="g52"><g
             id="g54"><g
               clip-path="url(#clipPath60)"
               id="g56"><text
                 id="text82"
                 style="font-variant:normal;font-weight:normal;font-stretch:normal;font-size:12px;font-family:'Myriad Pro';-inkscape-font-specification:MyriadPro-Regular;writing-mode:lr-tb;fill:#000000;fill-opacity:1;fill-rule:nonzero;stroke:none"
                 transform="translate(-103.0967,-61.2773)"><tspan
                   id="tspan62"
                   y="0"
                   x="0 5.8800001 12.54 15.348 20.1 22.643999 25.452 30.204 32.748001 38.532001 45.192001 47.736 54.937199 61.7052 68.293198 75.121201 81.133202 86.161201 88.7052 91.693199 94.5252 97.357201 103.9692 108.7212 112.6932 116.556 122.292 126.1932 132.7812 136.7052 141.7332 144.27721 149.81039 152.61839 155.45039 161.4624 164.00639 167.97839 174.6384 180.3744 184.34641 186.8904 195.67439 201.4584">This is an Adobe® Illustrator® File that was</tspan><tspan
                   id="tspan64"
                   y="14.4"
                   x="0 4.7519999 10.44 16.091999 22.104 28.872 31.416 40.248001 43.056 47.028 53.688 60.276001 66.888 70.860001 73.403999 79.788002 87.779999 93.624001 96.167999 102.996 109.584 116.196 120.096 126.108 132.72 136.65601">saved without PDF Content.</tspan><tspan
                   id="tspan66"
                   y="28.799999"
                   x="0 5.112 11.7 14.244 20.568001 23.4 29.184 34.487999 40.5 43.043999 49.632 53.556 56.099998 62.688 69.515999 75.528 82.188004 84.732002 88.704002 95.363998 98.171997 102.924 105.468 111.744 114.576 120.588 123.132 125.94 132.60001 135.144 141.73199 145.70399 152.364 158.37601">To Place or open this fle in other</tspan><tspan
                   id="tspan68"
                   y="43.200001"
                   x="0 5.7839999 12.612 19.440001 22.271999 25.08 30.455999 36.192001 40.164001 42.972 49.560001 56.220001 60.841202 63.325199 65.869202 68.6772 72.6492 75.193199 79.945198 86.605202 93.193199 99.805199 102.6372 109.4052 111.9492 118.7772 124.7892 127.3332 131.13721 137.4852 141.1692 145.9212 151.60921 157.2612 163.27319 170.0412 172.58521 176.0892 179.8932 186.4812">applications, it should be re-saved from</tspan><tspan
                   id="tspan70"
                   y="57.599998"
                   x="0 7.1999998 13.968 20.556 27.384001 33.396 35.939999 38.929199 41.7612 44.593201 51.2052 55.957199 59.929199 63.793201 69.529198 73.429199 80.017197 83.9412 86.485199 95.3172 98.125198 102.0972 108.7572 111.3012 115.2732 121.9332 127.9452 130.4892 134.49719 141.42 145.2252 151.2372 156.97321 160.8732 166.88519 169.4292 175.8132 183.80521">Adobe Illustrator with the &quot;Create PDF</tspan><tspan
                   id="tspan72"
                   y="72"
                   x="0 6.8280001 13.416 23.424 30.252001 35.987999 39.959999 42.768002 49.596001 52.428001 58.439999 60.984001 66.515999 69.323997 72.155998 78.167999 82.211998 84.755997 91.344002 98.171997 102.144 104.952 111.54 118.2 120.744 124.716 131.328 135.3 141.96001 147.972 154.74001 157.284 163.87199 170.532 173.01601 175.06799 180.948 187.608 190.416">Compatible File&quot; option turned on. This</tspan><tspan
                   id="tspan74"
                   y="86.400002"
                   x="0 6.5879998 13.416 17.388 20.195999 26.784 33.444 35.987999 38.796001 43.548 46.091999 48.900002 55.560001 58.104 62.076 68.736 74.748001 77.292 80.279999 83.112 85.944 92.556 97.307999 101.28 105.144 110.88 114.78 121.368 125.292 127.836 135.73199 141.468 145.44 148.248 153.89999 159.912 162.45599 167.92799 174.51601 178.48801 188.496 194.2308">option is in the Illustrator Native Format</tspan><tspan
                   id="tspan76"
                   y="100.8"
                   x="0 8.2679996 15.096 19.068001 21.875999 28.464001 35.124001 39.875999 42.419998 49.188 51.995998 57.779999 60.612 67.199997 73.907997 76.452003 83.279999 89.699997 95.255997 97.739998 100.284 109.116 115.776 118.584 123.96 130.62 133.164 138.948 145.776 152.604 158.616 164.39999 168.32401 173.076 175.62 184.452 191.112 197.12399">Options dialog box, which appears when</tspan><tspan
                   id="tspan78"
                   y="115.2"
                   x="0 4.7519999 10.44 16.212 19.02 25.68 32.388 34.931999 40.716 47.375999 49.919998 57.119999 63.888 70.475998 77.304001 83.316002 85.860001 88.848 91.68 94.512001 101.124 105.876 109.848 113.712 119.448 123.3468 129.9348 133.8588 136.4028 142.6788 145.5108 151.5228 154.0668 160.6788 165.4308 168.2388 174.8988 181.6068 184.1508 188.1228 194.78281">saving an Adobe Illustrator fle using the</tspan><tspan
                   id="tspan80"
                   y="129.60001"
                   x="0 5.9520001 11.64 17.292 23.304001 25.848 33.119999 37.872002 40.416 45.7188 52.306801 62.3148 72.3228 78.106796 84.7668 91.414803">Save As command.</tspan></text>
</g></g></g><g
           transform="matrix(1,0,0,-1,154.6626,484.98859)"
           id="g84"><g
             id="g86"><g
               clip-path="url(#clipPath92)"
               id="g88"><text
                 id="text114"
                 style="font-variant:normal;font-weight:normal;font-stretch:normal;font-size:12px;font-family:'Myriad Pro';-inkscape-font-specification:MyriadPro-Regular;writing-mode:lr-tb;fill:#000000;fill-opacity:1;fill-rule:nonzero;stroke:none"
                 transform="translate(-103.0967,-61.2773)"><tspan
                   id="tspan94"
                   y="0"
                   x="0 5.8800001 12.54 15.348 20.1 22.643999 25.452 30.204 32.748001 38.532001 45.192001 47.736 54.937199 61.7052 68.293198 75.121201 81.133202 86.161201 88.7052 91.693199 94.5252 97.357201 103.9692 108.7212 112.6932 116.556 122.292 126.1932 132.7812 136.7052 141.7332 144.27721 149.81039 152.61839 155.45039 161.4624 164.00639 167.97839 174.6384 180.3744 184.34641 186.8904 195.67439 201.4584">This is an Adobe® Illustrator® File that was</tspan><tspan
                   id="tspan96"
                   y="14.4"
                   x="0 4.7519999 10.44 16.091999 22.104 28.872 31.416 40.248001 43.056 47.028 53.688 60.276001 66.888 70.860001 73.403999 79.788002 87.779999 93.624001 96.167999 102.996 109.584 116.196 120.096 126.108 132.72 136.65601">saved without PDF Content.</tspan><tspan
                   id="tspan98"
                   y="28.799999"
                   x="0 5.112 11.7 14.244 20.568001 23.4 29.184 34.487999 40.5 43.043999 49.632 53.556 56.099998 62.688 69.515999 75.528 82.188004 84.732002 88.704002 95.363998 98.171997 102.924 105.468 111.744 114.576 120.588 123.132 125.94 132.60001 135.144 141.73199 145.70399 152.364 158.37601">To Place or open this fle in other</tspan><tspan
                   id="tspan100"
                   y="43.200001"
                   x="0 5.7839999 12.612 19.440001 22.271999 25.08 30.455999 36.192001 40.164001 42.972 49.560001 56.220001 60.841202 63.325199 65.869202 68.6772 72.6492 75.193199 79.945198 86.605202 93.193199 99.805199 102.6372 109.4052 111.9492 118.7772 124.7892 127.3332 131.13721 137.4852 141.1692 145.9212 151.60921 157.2612 163.27319 170.0412 172.58521 176.0892 179.8932 186.4812">applications, it should be re-saved from</tspan><tspan
                   id="tspan102"
                   y="57.599998"
                   x="0 7.1999998 13.968 20.556 27.384001 33.396 35.939999 38.929199 41.7612 44.593201 51.2052 55.957199 59.929199 63.793201 69.529198 73.429199 80.017197 83.9412 86.485199 95.3172 98.125198 102.0972 108.7572 111.3012 115.2732 121.9332 127.9452 130.4892 134.49719 141.42 145.2252 151.2372 156.97321 160.8732 166.88519 169.4292 175.8132 183.80521">Adobe Illustrator with the &quot;Create PDF</tspan><tspan
                   id="tspan104"
                   y="72"
                   x="0 6.8280001 13.416 23.424 30.252001 35.987999 39.959999 42.768002 49.596001 52.428001 58.439999 60.984001 66.515999 69.323997 72.155998 78.167999 82.211998 84.755997 91.344002 98.171997 102.144 104.952 111.54 118.2 120.744 124.716 131.328 135.3 141.96001 147.972 154.74001 157.284 163.87199 170.532 173.01601 175.06799 180.948 187.608 190.416">Compatible File&quot; option turned on. This</tspan><tspan
                   id="tspan106"
                   y="86.400002"
                   x="0 6.5879998 13.416 17.388 20.195999 26.784 33.444 35.987999 38.796001 43.548 46.091999 48.900002 55.560001 58.104 62.076 68.736 74.748001 77.292 80.279999 83.112 85.944 92.556 97.307999 101.28 105.144 110.88 114.78 121.368 125.292 127.836 135.73199 141.468 145.44 148.248 153.89999 159.912 162.45599 167.92799 174.51601 178.48801 188.496 194.2308">option is in the Illustrator Native Format</tspan><tspan
                   id="tspan108"
                   y="100.8"
                   x="0 8.2679996 15.096 19.068001 21.875999 28.464001 35.124001 39.875999 42.419998 49.188 51.995998 57.779999 60.612 67.199997 73.907997 76.452003 83.279999 89.699997 95.255997 97.739998 100.284 109.116 115.776 118.584 123.96 130.62 133.164 138.948 145.776 152.604 158.616 164.39999 168.32401 173.076 175.62 184.452 191.112 197.12399">Options dialog box, which appears when</tspan><tspan
                   id="tspan110"
                   y="115.2"
                   x="0 4.7519999 10.44 16.212 19.02 25.68 32.388 34.931999 40.716 47.375999 49.919998 57.119999 63.888 70.475998 77.304001 83.316002 85.860001 88.848 91.68 94.512001 101.124 105.876 109.848 113.712 119.448 123.3468 129.9348 133.8588 136.4028 142.6788 145.5108 151.5228 154.0668 160.6788 165.4308 168.2388 174.8988 181.6068 184.1508 188.1228 194.78281">saving an Adobe Illustrator fle using the</tspan><tspan
                   id="tspan112"
                   y="129.60001"
                   x="0 5.9520001 11.64 17.292 23.304001 25.848 33.119999 37.872002 40.416 45.7188 52.306801 62.3148 72.3228 78.106796 84.7668 91.414803">Save As command.</tspan></text>
</g></g></g><g
           transform="matrix(1,0,0,-1,154.6626,656.16083)"
           id="g116"><g
             id="g118"><g
               clip-path="url(#clipPath124)"
               id="g120"><text
                 id="text146"
                 style="font-variant:normal;font-weight:normal;font-stretch:normal;font-size:12px;font-family:'Myriad Pro';-inkscape-font-specification:MyriadPro-Regular;writing-mode:lr-tb;fill:#000000;fill-opacity:1;fill-rule:nonzero;stroke:none"
                 transform="translate(-103.0967,-61.2773)"><tspan
                   id="tspan126"
                   y="0"
                   x="0 5.8800001 12.54 15.348 20.1 22.643999 25.452 30.204 32.748001 38.532001 45.192001 47.736 54.937199 61.7052 68.293198 75.121201 81.133202 86.161201 88.7052 91.693199 94.5252 97.357201 103.9692 108.7212 112.6932 116.556 122.292 126.1932 132.7812 136.7052 141.7332 144.27721 149.81039 152.61839 155.45039 161.4624 164.00639 167.97839 174.6384 180.3744 184.34641 186.8904 195.67439 201.4584">This is an Adobe® Illustrator® File that was</tspan><tspan
                   id="tspan128"
                   y="14.4"
                   x="0 4.7519999 10.44 16.091999 22.104 28.872 31.416 40.248001 43.056 47.028 53.688 60.276001 66.888 70.860001 73.403999 79.788002 87.779999 93.624001 96.167999 102.996 109.584 116.196 120.096 126.108 132.72 136.65601">saved without PDF Content.</tspan><tspan
                   id="tspan130"
                   y="28.799999"
                   x="0 5.112 11.7 14.244 20.568001 23.4 29.184 34.487999 40.5 43.043999 49.632 53.556 56.099998 62.688 69.515999 75.528 82.188004 84.732002 88.704002 95.363998 98.171997 102.924 105.468 111.744 114.576 120.588 123.132 125.94 132.60001 135.144 141.73199 145.70399 152.364 158.37601">To Place or open this fle in other</tspan><tspan
                   id="tspan132"
                   y="43.200001"
                   x="0 5.7839999 12.612 19.440001 22.271999 25.08 30.455999 36.192001 40.164001 42.972 49.560001 56.220001 60.841202 63.325199 65.869202 68.6772 72.6492 75.193199 79.945198 86.605202 93.193199 99.805199 102.6372 109.4052 111.9492 118.7772 124.7892 127.3332 131.13721 137.4852 141.1692 145.9212 151.60921 157.2612 163.27319 170.0412 172.58521 176.0892 179.8932 186.4812">applications, it should be re-saved from</tspan><tspan
                   id="tspan134"
                   y="57.599998"
                   x="0 7.1999998 13.968 20.556 27.384001 33.396 35.939999 38.929199 41.7612 44.593201 51.2052 55.957199 59.929199 63.793201 69.529198 73.429199 80.017197 83.9412 86.485199 95.3172 98.125198 102.0972 108.7572 111.3012 115.2732 121.9332 127.9452 130.4892 134.49719 141.42 145.2252 151.2372 156.97321 160.8732 166.88519 169.4292 175.8132 183.80521">Adobe Illustrator with the &quot;Create PDF</tspan><tspan
                   id="tspan136"
                   y="72"
                   x="0 6.8280001 13.416 23.424 30.252001 35.987999 39.959999 42.768002 49.596001 52.428001 58.439999 60.984001 66.515999 69.323997 72.155998 78.167999 82.211998 84.755997 91.344002 98.171997 102.144 104.952 111.54 118.2 120.744 124.716 131.328 135.3 141.96001 147.972 154.74001 157.284 163.87199 170.532 173.01601 175.06799 180.948 187.608 190.416">Compatible File&quot; option turned on. This</tspan><tspan
                   id="tspan138"
                   y="86.400002"
                   x="0 6.5879998 13.416 17.388 20.195999 26.784 33.444 35.987999 38.796001 43.548 46.091999 48.900002 55.560001 58.104 62.076 68.736 74.748001 77.292 80.279999 83.112 85.944 92.556 97.307999 101.28 105.144 110.88 114.78 121.368 125.292 127.836 135.73199 141.468 145.44 148.248 153.89999 159.912 162.45599 167.92799 174.51601 178.48801 188.496 194.2308">option is in the Illustrator Native Format</tspan><tspan
                   id="tspan140"
                   y="100.8"
                   x="0 8.2679996 15.096 19.068001 21.875999 28.464001 35.124001 39.875999 42.419998 49.188 51.995998 57.779999 60.612 67.199997 73.907997 76.452003 83.279999 89.699997 95.255997 97.739998 100.284 109.116 115.776 118.584 123.96 130.62 133.164 138.948 145.776 152.604 158.616 164.39999 168.32401 173.076 175.62 184.452 191.112 197.12399">Options dialog box, which appears when</tspan><tspan
                   id="tspan142"
                   y="115.2"
                   x="0 4.7519999 10.44 16.212 19.02 25.68 32.388 34.931999 40.716 47.375999 49.919998 57.119999 63.888 70.475998 77.304001 83.316002 85.860001 88.848 91.68 94.512001 101.124 105.876 109.848 113.712 119.448 123.3468 129.9348 133.8588 136.4028 142.6788 145.5108 151.5228 154.0668 160.6788 165.4308 168.2388 174.8988 181.6068 184.1508 188.1228 194.78281">saving an Adobe Illustrator fle using the</tspan><tspan
                   id="tspan144"
                   y="129.60001"
                   x="0 5.9520001 11.64 17.292 23.304001 25.848 33.119999 37.872002 40.416 45.7188 52.306801 62.3148 72.3228 78.106796 84.7668 91.414803">Save As command.</tspan></text>
</g></g></g><g
           transform="matrix(1,0,0,-1,412.43359,142.64404)"
           id="g148"><g
             id="g150"><g
               clip-path="url(#clipPath156)"
               id="g152"><text
                 id="text178"
                 style="font-variant:normal;font-weight:normal;font-stretch:normal;font-size:12px;font-family:'Myriad Pro';-inkscape-font-specification:MyriadPro-Regular;writing-mode:lr-tb;fill:#000000;fill-opacity:1;fill-rule:nonzero;stroke:none"
                 transform="translate(-103.0967,-61.2773)"><tspan
                   id="tspan158"
                   y="0"
                   x="0 5.8800001 12.54 15.348 20.1 22.643999 25.452 30.204 32.748001 38.532001 45.192001 47.736 54.937199 61.7052 68.293198 75.121201 81.133202 86.161201 88.7052 91.693199 94.5252 97.357201 103.9692 108.7212 112.6932 116.556 122.292 126.1932 132.7812 136.7052 141.7332 144.27721 149.81039 152.61839 155.45039 161.4624 164.00639 167.97839 174.6384 180.3744 184.34641 186.8904 195.67439 201.4584">This is an Adobe® Illustrator® File that was</tspan><tspan
                   id="tspan160"
                   y="14.4"
                   x="0 4.7519999 10.44 16.091999 22.104 28.872 31.416 40.248001 43.056 47.028 53.688 60.276001 66.888 70.860001 73.403999 79.788002 87.779999 93.624001 96.167999 102.996 109.584 116.196 120.096 126.108 132.72 136.65601">saved without PDF Content.</tspan><tspan
                   id="tspan162"
                   y="28.799999"
                   x="0 5.112 11.7 14.244 20.568001 23.4 29.184 34.487999 40.5 43.043999 49.632 53.556 56.099998 62.688 69.515999 75.528 82.188004 84.732002 88.704002 95.363998 98.171997 102.924 105.468 111.744 114.576 120.588 123.132 125.94 132.60001 135.144 141.73199 145.70399 152.364 158.37601">To Place or open this fle in other</tspan><tspan
                   id="tspan164"
                   y="43.200001"
                   x="0 5.7839999 12.612 19.440001 22.271999 25.08 30.455999 36.192001 40.164001 42.972 49.560001 56.220001 60.841202 63.325199 65.869202 68.6772 72.6492 75.193199 79.945198 86.605202 93.193199 99.805199 102.6372 109.4052 111.9492 118.7772 124.7892 127.3332 131.13721 137.4852 141.1692 145.9212 151.60921 157.2612 163.27319 170.0412 172.58521 176.0892 179.8932 186.4812">applications, it should be re-saved from</tspan><tspan
                   id="tspan166"
                   y="57.599998"
                   x="0 7.1999998 13.968 20.556 27.384001 33.396 35.939999 38.929199 41.7612 44.593201 51.2052 55.957199 59.929199 63.793201 69.529198 73.429199 80.017197 83.9412 86.485199 95.3172 98.125198 102.0972 108.7572 111.3012 115.2732 121.9332 127.9452 130.4892 134.49719 141.42 145.2252 151.2372 156.97321 160.8732 166.88519 169.4292 175.8132 183.80521">Adobe Illustrator with the &quot;Create PDF</tspan><tspan
                   id="tspan168"
                   y="72"
                   x="0 6.8280001 13.416 23.424 30.252001 35.987999 39.959999 42.768002 49.596001 52.428001 58.439999 60.984001 66.515999 69.323997 72.155998 78.167999 82.211998 84.755997 91.344002 98.171997 102.144 104.952 111.54 118.2 120.744 124.716 131.328 135.3 141.96001 147.972 154.74001 157.284 163.87199 170.532 173.01601 175.06799 180.948 187.608 190.416">Compatible File&quot; option turned on. This</tspan><tspan
                   id="tspan170"
                   y="86.400002"
                   x="0 6.5879998 13.416 17.388 20.195999 26.784 33.444 35.987999 38.796001 43.548 46.091999 48.900002 55.560001 58.104 62.076 68.736 74.748001 77.292 80.279999 83.112 85.944 92.556 97.307999 101.28 105.144 110.88 114.78 121.368 125.292 127.836 135.73199 141.468 145.44 148.248 153.89999 159.912 162.45599 167.92799 174.51601 178.48801 188.496 194.2308">option is in the Illustrator Native Format</tspan><tspan
                   id="tspan172"
                   y="100.8"
                   x="0 8.2679996 15.096 19.068001 21.875999 28.464001 35.124001 39.875999 42.419998 49.188 51.995998 57.779999 60.612 67.199997 73.907997 76.452003 83.279999 89.699997 95.255997 97.739998 100.284 109.116 115.776 118.584 123.96 130.62 133.164 138.948 145.776 152.604 158.616 164.39999 168.32401 173.076 175.62 184.452 191.112 197.12399">Options dialog box, which appears when</tspan><tspan
                   id="tspan174"
                   y="115.2"
                   x="0 4.7519999 10.44 16.212 19.02 25.68 32.388 34.931999 40.716 47.375999 49.919998 57.119999 63.888 70.475998 77.304001 83.316002 85.860001 88.848 91.68 94.512001 101.124 105.876 109.848 113.712 119.448 123.3468 129.9348 133.8588 136.4028 142.6788 145.5108 151.5228 154.0668 160.6788 165.4308 168.2388 174.8988 181.6068 184.1508 188.1228 194.78281">saving an Adobe Illustrator fle using the</tspan><tspan
                   id="tspan176"
                   y="129.60001"
                   x="0 5.9520001 11.64 17.292 23.304001 25.848 33.119999 37.872002 40.416 45.7188 52.306801 62.3148 72.3228 78.106796 84.7668 91.414803">Save As command.</tspan></text>
</g></g></g><g
           transform="matrix(1,0,0,-1,412.43359,313.81631)"
           id="g180"><g
             id="g182"><g
               clip-path="url(#clipPath188)"
               id="g184"><text
                 id="text210"
                 style="font-variant:normal;font-weight:normal;font-stretch:normal;font-size:12px;font-family:'Myriad Pro';-inkscape-font-specification:MyriadPro-Regular;writing-mode:lr-tb;fill:#000000;fill-opacity:1;fill-rule:nonzero;stroke:none"
                 transform="translate(-103.0967,-61.2773)"><tspan
                   id="tspan190"
                   y="0"
                   x="0 5.8800001 12.54 15.348 20.1 22.643999 25.452 30.204 32.748001 38.532001 45.192001 47.736 54.937199 61.7052 68.293198 75.121201 81.133202 86.161201 88.7052 91.693199 94.5252 97.357201 103.9692 108.7212 112.6932 116.556 122.292 126.1932 132.7812 136.7052 141.7332 144.27721 149.81039 152.61839 155.45039 161.4624 164.00639 167.97839 174.6384 180.3744 184.34641 186.8904 195.67439 201.4584">This is an Adobe® Illustrator® File that was</tspan><tspan
                   id="tspan192"
                   y="14.4"
                   x="0 4.7519999 10.44 16.091999 22.104 28.872 31.416 40.248001 43.056 47.028 53.688 60.276001 66.888 70.860001 73.403999 79.788002 87.779999 93.624001 96.167999 102.996 109.584 116.196 120.096 126.108 132.72 136.65601">saved without PDF Content.</tspan><tspan
                   id="tspan194"
                   y="28.799999"
                   x="0 5.112 11.7 14.244 20.568001 23.4 29.184 34.487999 40.5 43.043999 49.632 53.556 56.099998 62.688 69.515999 75.528 82.188004 84.732002 88.704002 95.363998 98.171997 102.924 105.468 111.744 114.576 120.588 123.132 125.94 132.60001 135.144 141.73199 145.70399 152.364 158.37601">To Place or open this fle in other</tspan><tspan
                   id="tspan196"
                   y="43.200001"
                   x="0 5.7839999 12.612 19.440001 22.271999 25.08 30.455999 36.192001 40.164001 42.972 49.560001 56.220001 60.841202 63.325199 65.869202 68.6772 72.6492 75.193199 79.945198 86.605202 93.193199 99.805199 102.6372 109.4052 111.9492 118.7772 124.7892 127.3332 131.13721 137.4852 141.1692 145.9212 151.60921 157.2612 163.27319 170.0412 172.58521 176.0892 179.8932 186.4812">applications, it should be re-saved from</tspan><tspan
                   id="tspan198"
                   y="57.599998"
                   x="0 7.1999998 13.968 20.556 27.384001 33.396 35.939999 38.929199 41.7612 44.593201 51.2052 55.957199 59.929199 63.793201 69.529198 73.429199 80.017197 83.9412 86.485199 95.3172 98.125198 102.0972 108.7572 111.3012 115.2732 121.9332 127.9452 130.4892 134.49719 141.42 145.2252 151.2372 156.97321 160.8732 166.88519 169.4292 175.8132 183.80521">Adobe Illustrator with the &quot;Create PDF</tspan><tspan
                   id="tspan200"
                   y="72"
                   x="0 6.8280001 13.416 23.424 30.252001 35.987999 39.959999 42.768002 49.596001 52.428001 58.439999 60.984001 66.515999 69.323997 72.155998 78.167999 82.211998 84.755997 91.344002 98.171997 102.144 104.952 111.54 118.2 120.744 124.716 131.328 135.3 141.96001 147.972 154.74001 157.284 163.87199 170.532 173.01601 175.06799 180.948 187.608 190.416">Compatible File&quot; option turned on. This</tspan><tspan
                   id="tspan202"
                   y="86.400002"
                   x="0 6.5879998 13.416 17.388 20.195999 26.784 33.444 35.987999 38.796001 43.548 46.091999 48.900002 55.560001 58.104 62.076 68.736 74.748001 77.292 80.279999 83.112 85.944 92.556 97.307999 101.28 105.144 110.88 114.78 121.368 125.292 127.836 135.73199 141.468 145.44 148.248 153.89999 159.912 162.45599 167.92799 174.51601 178.48801 188.496 194.2308">option is in the Illustrator Native Format</tspan><tspan
                   id="tspan204"
                   y="100.8"
                   x="0 8.2679996 15.096 19.068001 21.875999 28.464001 35.124001 39.875999 42.419998 49.188 51.995998 57.779999 60.612 67.199997 73.907997 76.452003 83.279999 89.699997 95.255997 97.739998 100.284 109.116 115.776 118.584 123.96 130.62 133.164 138.948 145.776 152.604 158.616 164.39999 168.32401 173.076 175.62 184.452 191.112 197.12399">Options dialog box, which appears when</tspan><tspan
                   id="tspan206"
                   y="115.2"
                   x="0 4.7519999 10.44 16.212 19.02 25.68 32.388 34.931999 40.716 47.375999 49.919998 57.119999 63.888 70.475998 77.304001 83.316002 85.860001 88.848 91.68 94.512001 101.124 105.876 109.848 113.712 119.448 123.3468 129.9348 133.8588 136.4028 142.6788 145.5108 151.5228 154.0668 160.6788 165.4308 168.2388 174.8988 181.6068 184.1508 188.1228 194.78281">saving an Adobe Illustrator fle using the</tspan><tspan
                   id="tspan208"
                   y="129.60001"
                   x="0 5.9520001 11.64 17.292 23.304001 25.848 33.119999 37.872002 40.416 45.7188 52.306801 62.3148 72.3228 78.106796 84.7668 91.414803">Save As command.</tspan></text>
</g></g></g><g
           transform="matrix(1,0,0,-1,412.43359,484.98859)"
           id="g212"><g
             id="g214"><g
               clip-path="url(#clipPath220)"
               id="g216"><text
                 id="text242"
                 style="font-variant:normal;font-weight:normal;font-stretch:normal;font-size:12px;font-family:'Myriad Pro';-inkscape-font-specification:MyriadPro-Regular;writing-mode:lr-tb;fill:#000000;fill-opacity:1;fill-rule:nonzero;stroke:none"
                 transform="translate(-103.0967,-61.2773)"><tspan
                   id="tspan222"
                   y="0"
                   x="0 5.8800001 12.54 15.348 20.1 22.643999 25.452 30.204 32.748001 38.532001 45.192001 47.736 54.937199 61.7052 68.293198 75.121201 81.133202 86.161201 88.7052 91.693199 94.5252 97.357201 103.9692 108.7212 112.6932 116.556 122.292 126.1932 132.7812 136.7052 141.7332 144.27721 149.81039 152.61839 155.45039 161.4624 164.00639 167.97839 174.6384 180.3744 184.34641 186.8904 195.67439 201.4584">This is an Adobe® Illustrator® File that was</tspan><tspan
                   id="tspan224"
                   y="14.4"
                   x="0 4.7519999 10.44 16.091999 22.104 28.872 31.416 40.248001 43.056 47.028 53.688 60.276001 66.888 70.860001 73.403999 79.788002 87.779999 93.624001 96.167999 102.996 109.584 116.196 120.096 126.108 132.72 136.65601">saved without PDF Content.</tspan><tspan
                   id="tspan226"
                   y="28.799999"
                   x="0 5.112 11.7 14.244 20.568001 23.4 29.184 34.487999 40.5 43.043999 49.632 53.556 56.099998 62.688 69.515999 75.528 82.188004 84.732002 88.704002 95.363998 98.171997 102.924 105.468 111.744 114.576 120.588 123.132 125.94 132.60001 135.144 141.73199 145.70399 152.364 158.37601">To Place or open this fle in other</tspan><tspan
                   id="tspan228"
                   y="43.200001"
                   x="0 5.7839999 12.612 19.440001 22.271999 25.08 30.455999 36.192001 40.164001 42.972 49.560001 56.220001 60.841202 63.325199 65.869202 68.6772 72.6492 75.193199 79.945198 86.605202 93.193199 99.805199 102.6372 109.4052 111.9492 118.7772 124.7892 127.3332 131.13721 137.4852 141.1692 145.9212 151.60921 157.2612 163.27319 170.0412 172.58521 176.0892 179.8932 186.4812">applications, it should be re-saved from</tspan><tspan
                   id="tspan230"
                   y="57.599998"
                   x="0 7.1999998 13.968 20.556 27.384001 33.396 35.939999 38.929199 41.7612 44.593201 51.2052 55.957199 59.929199 63.793201 69.529198 73.429199 80.017197 83.9412 86.485199 95.3172 98.125198 102.0972 108.7572 111.3012 115.2732 121.9332 127.9452 130.4892 134.49719 141.42 145.2252 151.2372 156.97321 160.8732 166.88519 169.4292 175.8132 183.80521">Adobe Illustrator with the &quot;Create PDF</tspan><tspan
                   id="tspan232"
                   y="72"
                   x="0 6.8280001 13.416 23.424 30.252001 35.987999 39.959999 42.768002 49.596001 52.428001 58.439999 60.984001 66.515999 69.323997 72.155998 78.167999 82.211998 84.755997 91.344002 98.171997 102.144 104.952 111.54 118.2 120.744 124.716 131.328 135.3 141.96001 147.972 154.74001 157.284 163.87199 170.532 173.01601 175.06799 180.948 187.608 190.416">Compatible File&quot; option turned on. This</tspan><tspan
                   id="tspan234"
                   y="86.400002"
                   x="0 6.5879998 13.416 17.388 20.195999 26.784 33.444 35.987999 38.796001 43.548 46.091999 48.900002 55.560001 58.104 62.076 68.736 74.748001 77.292 80.279999 83.112 85.944 92.556 97.307999 101.28 105.144 110.88 114.78 121.368 125.292 127.836 135.73199 141.468 145.44 148.248 153.89999 159.912 162.45599 167.92799 174.51601 178.48801 188.496 194.2308">option is in the Illustrator Native Format</tspan><tspan
                   id="tspan236"
                   y="100.8"
                   x="0 8.2679996 15.096 19.068001 21.875999 28.464001 35.124001 39.875999 42.419998 49.188 51.995998 57.779999 60.612 67.199997 73.907997 76.452003 83.279999 89.699997 95.255997 97.739998 100.284 109.116 115.776 118.584 123.96 130.62 133.164 138.948 145.776 152.604 158.616 164.39999 168.32401 173.076 175.62 184.452 191.112 197.12399">Options dialog box, which appears when</tspan><tspan
                   id="tspan238"
                   y="115.2"
                   x="0 4.7519999 10.44 16.212 19.02 25.68 32.388 34.931999 40.716 47.375999 49.919998 57.119999 63.888 70.475998 77.304001 83.316002 85.860001 88.848 91.68 94.512001 101.124 105.876 109.848 113.712 119.448 123.3468 129.9348 133.8588 136.4028 142.6788 145.5108 151.5228 154.0668 160.6788 165.4308 168.2388 174.8988 181.6068 184.1508 188.1228 194.78281">saving an Adobe Illustrator fle using the</tspan><tspan
                   id="tspan240"
                   y="129.60001"
                   x="0 5.9520001 11.64 17.292 23.304001 25.848 33.119999 37.872002 40.416 45.7188 52.306801 62.3148 72.3228 78.106796 84.7668 91.414803">Save As command.</tspan></text>
</g></g></g><g
           transform="matrix(1,0,0,-1,412.43359,656.16083)"
           id="g244"><g
             id="g246"><g
               clip-path="url(#clipPath252)"
               id="g248"><text
                 id="text274"
                 style="font-variant:normal;font-weight:normal;font-stretch:normal;font-size:12px;font-family:'Myriad Pro';-inkscape-font-specification:MyriadPro-Regular;writing-mode:lr-tb;fill:#000000;fill-opacity:1;fill-rule:nonzero;stroke:none"
                 transform="translate(-103.0967,-61.2773)"><tspan
                   id="tspan254"
                   y="0"
                   x="0 5.8800001 12.54 15.348 20.1 22.643999 25.452 30.204 32.748001 38.532001 45.192001 47.736 54.937199 61.7052 68.293198 75.121201 81.133202 86.161201 88.7052 91.693199 94.5252 97.357201 103.9692 108.7212 112.6932 116.556 122.292 126.1932 132.7812 136.7052 141.7332 144.27721 149.81039 152.61839 155.45039 161.4624 164.00639 167.97839 174.6384 180.3744 184.34641 186.8904 195.67439 201.4584">This is an Adobe® Illustrator® File that was</tspan><tspan
                   id="tspan256"
                   y="14.4"
                   x="0 4.7519999 10.44 16.091999 22.104 28.872 31.416 40.248001 43.056 47.028 53.688 60.276001 66.888 70.860001 73.403999 79.788002 87.779999 93.624001 96.167999 102.996 109.584 116.196 120.096 126.108 132.72 136.65601">saved without PDF Content.</tspan><tspan
                   id="tspan258"
                   y="28.799999"
                   x="0 5.112 11.7 14.244 20.568001 23.4 29.184 34.487999 40.5 43.043999 49.632 53.556 56.099998 62.688 69.515999 75.528 82.188004 84.732002 88.704002 95.363998 98.171997 102.924 105.468 111.744 114.576 120.588 123.132 125.94 132.60001 135.144 141.73199 145.70399 152.364 158.37601">To Place or open this fle in other</tspan><tspan
                   id="tspan260"
                   y="43.200001"
                   x="0 5.7839999 12.612 19.440001 22.271999 25.08 30.455999 36.192001 40.164001 42.972 49.560001 56.220001 60.841202 63.325199 65.869202 68.6772 72.6492 75.193199 79.945198 86.605202 93.193199 99.805199 102.6372 109.4052 111.9492 118.7772 124.7892 127.3332 131.13721 137.4852 141.1692 145.9212 151.60921 157.2612 163.27319 170.0412 172.58521 176.0892 179.8932 186.4812">applications, it should be re-saved from</tspan><tspan
                   id="tspan262"
                   y="57.599998"
                   x="0 7.1999998 13.968 20.556 27.384001 33.396 35.939999 38.929199 41.7612 44.593201 51.2052 55.957199 59.929199 63.793201 69.529198 73.429199 80.017197 83.9412 86.485199 95.3172 98.125198 102.0972 108.7572 111.3012 115.2732 121.9332 127.9452 130.4892 134.49719 141.42 145.2252 151.2372 156.97321 160.8732 166.88519 169.4292 175.8132 183.80521">Adobe Illustrator with the &quot;Create PDF</tspan><tspan
                   id="tspan264"
                   y="72"
                   x="0 6.8280001 13.416 23.424 30.252001 35.987999 39.959999 42.768002 49.596001 52.428001 58.439999 60.984001 66.515999 69.323997 72.155998 78.167999 82.211998 84.755997 91.344002 98.171997 102.144 104.952 111.54 118.2 120.744 124.716 131.328 135.3 141.96001 147.972 154.74001 157.284 163.87199 170.532 173.01601 175.06799 180.948 187.608 190.416">Compatible File&quot; option turned on. This</tspan><tspan
                   id="tspan266"
                   y="86.400002"
                   x="0 6.5879998 13.416 17.388 20.195999 26.784 33.444 35.987999 38.796001 43.548 46.091999 48.900002 55.560001 58.104 62.076 68.736 74.748001 77.292 80.279999 83.112 85.944 92.556 97.307999 101.28 105.144 110.88 114.78 121.368 125.292 127.836 135.73199 141.468 145.44 148.248 153.89999 159.912 162.45599 167.92799 174.51601 178.48801 188.496 194.2308">option is in the Illustrator Native Format</tspan><tspan
                   id="tspan268"
                   y="100.8"
                   x="0 8.2679996 15.096 19.068001 21.875999 28.464001 35.124001 39.875999 42.419998 49.188 51.995998 57.779999 60.612 67.199997 73.907997 76.452003 83.279999 89.699997 95.255997 97.739998 100.284 109.116 115.776 118.584 123.96 130.62 133.164 138.948 145.776 152.604 158.616 164.39999 168.32401 173.076 175.62 184.452 191.112 197.12399">Options dialog box, which appears when</tspan><tspan
                   id="tspan270"
                   y="115.2"
                   x="0 4.7519999 10.44 16.212 19.02 25.68 32.388 34.931999 40.716 47.375999 49.919998 57.119999 63.888 70.475998 77.304001 83.316002 85.860001 88.848 91.68 94.512001 101.124 105.876 109.848 113.712 119.448 123.3468 129.9348 133.8588 136.4028 142.6788 145.5108 151.5228 154.0668 160.6788 165.4308 168.2388 174.8988 181.6068 184.1508 188.1228 194.78281">saving an Adobe Illustrator fle using the</tspan><tspan
                   id="tspan272"
                   y="129.60001"
                   x="0 5.9520001 11.64 17.292 23.304001 25.848 33.119999 37.872002 40.416 45.7188 52.306801 62.3148 72.3228 78.106796 84.7668 91.414803">Save As command.</tspan></text>
</g></g></g></g></g></g></svg>