<?xml version="1.0" encoding="UTF-8" standalone="no"?>
<svg
   xmlns:dc="http://purl.org/dc/elements/1.1/"
   xmlns:cc="http://creativecommons.org/ns#"
   xmlns:rdf="http://www.w3.org/1999/02/22-rdf-syntax-ns#"
   xmlns:svg="http://www.w3.org/2000/svg"
   xmlns="http://www.w3.org/2000/svg"
   viewBox="0 0 894.67603 94.020264"
   height="94.020264"
   width="894.67603"
   xml:space="preserve"
   id="svg2"
   version="1.1"><metadata
     id="metadata8"><rdf:RDF><cc:Work
         rdf:about=""><dc:format>image/svg+xml</dc:format><dc:type
           rdf:resource="http://purl.org/dc/dcmitype/StillImage" /></cc:Work></rdf:RDF></metadata><defs
     id="defs6"><clipPath
       id="clipPath36"
       clipPathUnits="userSpaceOnUse"><path
         id="path34"
         d="M 0,70.515 H 671.007 V 0 H 0 Z" /></clipPath></defs><g
     transform="matrix(1.3333333,0,0,-1.3333333,0,94.020267)"
     id="g10"><g
       transform="translate(322.6144,37.2269)"
       id="g12"><path
         id="path14"
         style="fill:#231f20;fill-opacity:1;fill-rule:nonzero;stroke:none"
         d="m 0,0 -5.839,5.143 1.313,1.5 L 0.023,2.63 4.819,6.645 6.104,5.123 Z" /></g><path
       id="path16"
       style="fill:#231f20;fill-opacity:1;fill-rule:nonzero;stroke:none"
       d="m 318.09,26.723 h -2 v 17.146 h 2 z" /><path
       id="path18"
       style="fill:#231f20;fill-opacity:1;fill-rule:nonzero;stroke:none"
       d="m 329.425,26.723 h -2 v 17.146 h 2 z" /><g
       transform="translate(576.9381,43.8597)"
       id="g20"><path
         id="path22"
         style="fill:#231f20;fill-opacity:1;fill-rule:nonzero;stroke:none"
         d="M 0,0 5.497,-4.611 10.995,0 Z M 5.497,-7.221 -3.113,0 h 17.22 z" /></g><path
       id="path24"
       style="fill:#231f20;fill-opacity:1;fill-rule:nonzero;stroke:none"
       d="m 583.435,26.72 h -2 v 11.224 h 2 z" /><path
       id="path26"
       style="fill:#231f20;fill-opacity:1;fill-rule:nonzero;stroke:none"
       d="m 467.007,41.844 h -13.186 v 2 h 13.186 z" /><path
       id="path28"
       style="fill:#231f20;fill-opacity:1;fill-rule:nonzero;stroke:none"
       d="m 461.342,26.724 h -2 v 17.058 h 2 z" /><g
       id="g30"><g
         clip-path="url(#clipPath36)"
         id="g32"><g
           transform="translate(347.1344,41.8387)"
           id="g38"><path
             id="path40"
             style="fill:#231f20;fill-opacity:1;fill-rule:nonzero;stroke:none"
             d="m 0,0 c -3.61,0 -6.548,-2.937 -6.548,-6.547 0,-3.611 2.938,-6.548 6.548,-6.548 3.61,0 6.547,2.937 6.547,6.548 C 6.547,-2.937 3.61,0 0,0 m 0,-15.095 c -4.713,0 -8.548,3.834 -8.548,8.548 C -8.548,-1.834 -4.713,2 0,2 4.713,2 8.547,-1.834 8.547,-6.547 8.547,-11.261 4.713,-15.095 0,-15.095" /></g><g
           transform="translate(201.1329,26.7421)"
           id="g42"><path
             id="path44"
             style="fill:#231f20;fill-opacity:1;fill-rule:nonzero;stroke:none"
             d="m 0,0 c -4.712,0 -8.546,3.834 -8.546,8.546 0,4.713 3.834,8.546 8.546,8.546 v -2 c -3.61,0 -6.546,-2.936 -6.546,-6.546 C -6.546,4.937 -3.61,2 0,2 3.27,2 5.987,4.41 6.47,7.546 H 0.563 v 2 h 7.983 v -1 C 8.546,3.834 4.712,0 0,0" /></g><g
           transform="translate(117.6149,26.7025)"
           id="g46"><path
             id="path48"
             style="fill:#231f20;fill-opacity:1;fill-rule:nonzero;stroke:none"
             d="m 0,0 c -4.691,0 -8.508,3.817 -8.508,8.508 0,4.692 3.817,8.608 8.508,8.608 v -2 c -3.589,0 -6.508,-3.019 -6.508,-6.608 C -6.508,4.919 -3.589,2 0,2 Z" /></g><g
           transform="translate(256.0885,26.7025)"
           id="g50"><path
             id="path52"
             style="fill:#231f20;fill-opacity:1;fill-rule:nonzero;stroke:none"
             d="m 0,0 v 2 c 3.589,0 6.508,2.919 6.508,6.508 v 8.636 h 2 V 8.508 C 8.508,3.817 4.691,0 0,0" /></g><g
           transform="translate(441.6544,26.7186)"
           id="g54"><path
             id="path56"
             style="fill:#231f20;fill-opacity:1;fill-rule:nonzero;stroke:none"
             d="M 0,0 H -3.285 V 1.984 H 0 c 0.864,0 1.591,0.47 1.946,1.257 C 2.301,4.028 2.171,4.885 1.6,5.532 l -4.209,4.764 c -1.086,1.23 -1.342,2.924 -0.667,4.42 0.674,1.496 2.113,2.425 3.754,2.425 H 2.843 V 15.157 H 0.478 c -0.864,0 -1.591,-0.469 -1.946,-1.257 -0.355,-0.787 -0.225,-1.643 0.346,-2.291 L 3.087,6.845 C 4.173,5.615 4.429,3.921 3.754,2.425 3.08,0.93 1.641,0 0,0" /></g><g
           transform="translate(220.5514,26.7215)"
           id="g58"><path
             id="path60"
             style="fill:#231f20;fill-opacity:1;fill-rule:nonzero;stroke:none"
             d="m 0,0 -0.046,17.123 2,0.004 L 2,-0.004 Z" /></g><g
           transform="translate(232.3688,26.704)"
           id="g62"><path
             id="path64"
             style="fill:#231f20;fill-opacity:1;fill-rule:nonzero;stroke:none"
             d="m 0,0 -0.046,17.14 2,0.006 L 2,0.006 Z" /></g><g
           transform="translate(221.5236,36.7684)"
           id="g66"><path
             id="path68"
             style="fill:#231f20;fill-opacity:1;fill-rule:nonzero;stroke:none"
             d="m 0,0 -0.006,2 11.818,0.033 0.005,-2 z" /></g><g
           transform="translate(608.9928,26.7186)"
           id="g70"><path
             id="path72"
             style="fill:#231f20;fill-opacity:1;fill-rule:nonzero;stroke:none"
             d="m 0,0 h -10.66 l 8.184,15.162 -7.337,-0.026 -0.007,2 L 0.882,17.144 -7.308,1.99 H 0 Z" /></g><g
           transform="translate(481.7404,26.7128)"
           id="g74"><path
             id="path76"
             style="fill:#231f20;fill-opacity:1;fill-rule:nonzero;stroke:none"
             d="m 0,0 c -3.799,0 -6.898,3.091 -6.909,6.89 l -0.029,10.267 2,0.005 0.029,-10.267 C -4.901,4.196 -2.699,2 0,2 1.313,2 2.548,2.512 3.476,3.442 4.403,4.373 4.912,5.608 4.909,6.922 l -0.031,10.227 2,0.006 L 6.909,6.928 C 6.914,5.079 6.197,3.339 4.892,2.03 3.586,0.721 1.849,0 0,0" /></g><g
           transform="translate(273.3331,26.7215)"
           id="g78"><path
             id="path80"
             style="fill:#231f20;fill-opacity:1;fill-rule:nonzero;stroke:none"
             d="m 0,0 -0.046,17.143 2,0.004 L 2,0.006 Z" /></g><g
           transform="translate(274.8761,36.9491)"
           id="g82"><path
             id="path84"
             style="fill:#231f20;fill-opacity:1;fill-rule:nonzero;stroke:none"
             d="M 0,0 -1.146,1.639 6.385,6.911 9.834,6.9 Z" /></g><g
           transform="translate(283.3561,26.7186)"
           id="g86"><path
             id="path88"
             style="fill:#231f20;fill-opacity:1;fill-rule:nonzero;stroke:none"
             d="M 0,0 -9.78,10.363 -8.326,11.736 2.75,0 Z" /></g><g
           transform="translate(149.1901,26.7113)"
           id="g90"><path
             id="path92"
             style="fill:#231f20;fill-opacity:1;fill-rule:nonzero;stroke:none"
             d="m 0,0 -0.046,17.147 2,0.006 L 2,0.006 Z" /></g><g
           transform="translate(150.1632,36.8954)"
           id="g94"><path
             id="path96"
             style="fill:#231f20;fill-opacity:1;fill-rule:nonzero;stroke:none"
             d="m 0,0 -0.006,2 8.509,0.023 0.006,-2 z" /></g><g
           transform="translate(150.15,41.8612)"
           id="g98"><path
             id="path100"
             style="fill:#231f20;fill-opacity:1;fill-rule:nonzero;stroke:none"
             d="m 0,0 -0.006,2 12.257,0.014 0.006,-1.98 z" /></g><g
           transform="translate(150.1906,26.7128)"
           id="g102"><path
             id="path104"
             style="fill:#231f20;fill-opacity:1;fill-rule:nonzero;stroke:none"
             d="M 0,0 -0.006,1.98 12.251,2.014 12.257,0.023 Z" /></g><g
           transform="translate(295.6246,26.7416)"
           id="g106"><path
             id="path108"
             style="fill:#231f20;fill-opacity:1;fill-rule:nonzero;stroke:none"
             d="m 0,0 -0.046,17.117 2,0.006 L 2,-0.014 Z" /></g><g
           transform="translate(296.6251,26.7225)"
           id="g110"><path
             id="path112"
             style="fill:#231f20;fill-opacity:1;fill-rule:nonzero;stroke:none"
             d="m 0,0 -0.006,1.97 6.757,0.034 0.006,-2 z" /></g><g
           transform="translate(172.4415,26.7215)"
           id="g114"><path
             id="path116"
             style="fill:#231f20;fill-opacity:1;fill-rule:nonzero;stroke:none"
             d="m 0,0 -0.046,17.137 2,0.006 L 2,-0.004 Z" /></g><g
           transform="translate(173.4142,36.8954)"
           id="g118"><path
             id="path120"
             style="fill:#231f20;fill-opacity:1;fill-rule:nonzero;stroke:none"
             d="m 0,0 -0.006,2 8.509,0.023 0.006,-2 z" /></g><g
           transform="translate(173.401,41.8812)"
           id="g122"><path
             id="path124"
             style="fill:#231f20;fill-opacity:1;fill-rule:nonzero;stroke:none"
             d="m 0,0 -0.006,1.98 12.257,0.004 0.006,-1.95 z" /></g><g
           transform="translate(364.8893,26.7313)"
           id="g126"><path
             id="path128"
             style="fill:#231f20;fill-opacity:1;fill-rule:nonzero;stroke:none"
             d="m 0,0 -0.046,17.102 2,0.005 L 2,0.006 Z" /></g><g
           transform="translate(374.5656,37.013)"
           id="g130"><path
             id="path132"
             style="fill:#231f20;fill-opacity:1;fill-rule:nonzero;stroke:none"
             d="M 0,0 H -8.699 V 2 H 0 C 0.778,2 1.412,2.633 1.412,3.412 1.412,4.191 0.778,4.824 0,4.824 h -8.699 v 2 H 0 C 1.881,6.824 3.412,5.293 3.412,3.412 3.412,1.531 1.881,0 0,0" /></g><g
           transform="translate(88.2885,26.7118)"
           id="g134"><path
             id="path136"
             style="fill:#231f20;fill-opacity:1;fill-rule:nonzero;stroke:none"
             d="m 0,0 -0.046,17.122 2,0.004 L 2,-0.005 Z" /></g><g
           transform="translate(89.2758,37.0492)"
           id="g138"><path
             id="path140"
             style="fill:#231f20;fill-opacity:1;fill-rule:nonzero;stroke:none"
             d="m 0,0 -0.008,2 5.98,0.024 C 6.741,2.026 7.365,2.653 7.363,3.421 7.361,4.188 6.736,4.811 5.969,4.811 H 5.966 l -5.979,-0.024 -0.008,2 5.98,0.024 h 0.009 c 1.868,0 3.39,-1.517 3.395,-3.384 C 9.368,1.556 7.85,0.029 5.979,0.024 Z" /></g><g
           transform="translate(89.2611,26.7059)"
           id="g142"><path
             id="path144"
             style="fill:#231f20;fill-opacity:1;fill-rule:nonzero;stroke:none"
             d="M 0,0 -0.006,2 5.97,2.017 C 8.259,2.023 10.118,3.89 10.115,6.178 10.114,7.289 9.679,8.333 8.892,9.117 8.108,9.899 7.066,10.329 5.96,10.329 H 5.948 l -5.961,-0.016 -0.006,2 5.961,0.016 H 5.96 c 1.639,0 3.181,-0.637 4.343,-1.794 1.166,-1.162 1.81,-2.708 1.812,-4.354 0.004,-3.39 -2.75,-6.155 -6.139,-6.164 z" /></g><g
           transform="translate(426.7784,26.7186)"
           id="g146"><path
             id="path148"
             style="fill:#231f20;fill-opacity:1;fill-rule:nonzero;stroke:none"
             d="M 0,0 -5.881,10.912 -4.12,11.861 2.272,0 Z" /></g><g
           transform="translate(415.2457,26.7162)"
           id="g150"><path
             id="path152"
             style="fill:#231f20;fill-opacity:1;fill-rule:nonzero;stroke:none"
             d="m 0,0 -0.046,17.148 2,0.005 L 2,0.005 Z" /></g><g
           transform="translate(416.2189,37.0902)"
           id="g154"><path
             id="path156"
             style="fill:#231f20;fill-opacity:1;fill-rule:nonzero;stroke:none"
             d="M 0,0 -0.006,2 8.726,2.024 C 9.494,2.026 10.117,2.653 10.115,3.421 10.114,3.793 9.968,4.143 9.705,4.405 9.441,4.667 9.064,4.756 8.719,4.79 L -0.013,4.786 -0.019,6.776 8.713,6.78 h 0.011 c 0.901,0 1.751,-0.33 2.391,-0.967 0.643,-0.639 0.998,-1.48 1,-2.387 C 12.118,2.52 11.767,1.667 11.128,1.024 10.489,0.381 9.638,0.026 8.731,0.024 Z" /></g><g
           transform="translate(245.8014,26.7381)"
           id="g158"><path
             id="path160"
             style="fill:#231f20;fill-opacity:1;fill-rule:nonzero;stroke:none"
             d="m 0,0 -0.046,17.13 2,-0.004 L 2,0.006 Z" /></g><g
           transform="translate(62.8322,26.7186)"
           id="g162"><path
             id="path164"
             style="fill:#231f20;fill-opacity:1;fill-rule:nonzero;stroke:none"
             d="M 0,0 7.808,17.141 H 9.01 L 16.879,0 14.68,-0.007 8.345,13.64 2.191,0 Z" /></g><g
           transform="translate(67.2902,33.8417)"
           id="g166"><path
             id="path168"
             style="fill:#231f20;fill-opacity:1;fill-rule:nonzero;stroke:none"
             d="m 0,0 -0.005,2 7.872,0.024 0.006,-2 z" /></g><g
           transform="translate(503.1188,26.7186)"
           id="g170"><path
             id="path172"
             style="fill:#231f20;fill-opacity:1;fill-rule:nonzero;stroke:none"
             d="m 0,0 -6.902,17.141 2.149,-0.002 5.725,-14.2 5.752,14.202 H 8.882 L 1.94,0 Z" /></g><g
           transform="translate(526.5734,26.7186)"
           id="g174"><path
             id="path176"
             style="fill:#231f20;fill-opacity:1;fill-rule:nonzero;stroke:none"
             d="m 0,0 -6.902,17.141 h 2.156 L 0.972,2.939 6.724,17.141 H 8.882 L 1.94,0 Z" /></g><g
           transform="translate(533.588,26.7186)"
           id="g178"><path
             id="path180"
             style="fill:#231f20;fill-opacity:1;fill-rule:nonzero;stroke:none"
             d="m 0,0 -6.902,17.141 h 2.156 L 0.974,2.935 6.727,17.141 H 8.885 L 1.937,0.004 Z" /></g><g
           transform="translate(394.8444,41.848)"
           id="g182"><path
             id="path184"
             style="fill:#231f20;fill-opacity:1;fill-rule:nonzero;stroke:none"
             d="m 0,0 c -3.607,0 -6.542,-2.935 -6.542,-6.542 0,-3.606 2.935,-6.541 6.542,-6.541 3.607,0 6.542,2.935 6.542,6.541 C 6.542,-2.935 3.607,0 0,0 m 0,-15.094 c -4.716,0 -8.553,3.836 -8.553,8.552 0,4.716 3.837,8.553 8.553,8.553 4.716,0 8.552,-3.837 8.552,-8.553 0,-4.716 -3.836,-8.552 -8.552,-8.552" /></g><g
           transform="translate(401.9928,26.7186)"
           id="g186"><path
             id="path188"
             style="fill:#231f20;fill-opacity:1;fill-rule:nonzero;stroke:none"
             d="m 0,0 -7.858,7.834 1.42,1.424 9.251,-9.243 z" /></g><g
           transform="translate(550.2467,26.7186)"
           id="g190"><path
             id="path192"
             style="fill:#231f20;fill-opacity:1;fill-rule:nonzero;stroke:none"
             d="m 0,0 12.109,17.141 h 2.449 L 2.449,0 Z" /></g><g
           transform="translate(563.3761,26.7186)"
           id="g194"><path
             id="path196"
             style="fill:#231f20;fill-opacity:1;fill-rule:nonzero;stroke:none"
             d="M 0,0 -12.109,17.141 H -9.66 L 2.449,0 Z" /></g><g
           transform="translate(131.4596,43.8426)"
           id="g198"><path
             id="path200"
             style="fill:#231f20;fill-opacity:1;fill-rule:nonzero;stroke:none"
             d="m 0,0 c -2.035,-0.004 -0.431,-1.994 0,-2 3.61,0 6.547,-2.937 6.547,-6.547 0,-3.611 -2.937,-6.548 -6.547,-6.548 -0.252,0 -0.214,-2 0,-2 4.713,0 8.547,3.834 8.547,8.548 C 8.547,-3.834 4.713,0 0,0" /></g><g
           transform="translate(129.4703,26.7416)"
           id="g202"><path
             id="path204"
             style="fill:#231f20;fill-opacity:1;fill-rule:nonzero;stroke:none"
             d="m 0,0 -0.046,17.097 2,0.006 L 2,0.006 Z" /></g></g></g></g></svg>