<?xml version="1.0" encoding="UTF-8" standalone="no"?>
<svg
   xmlns:dc="http://purl.org/dc/elements/1.1/"
   xmlns:cc="http://creativecommons.org/ns#"
   xmlns:rdf="http://www.w3.org/1999/02/22-rdf-syntax-ns#"
   xmlns:svg="http://www.w3.org/2000/svg"
   xmlns="http://www.w3.org/2000/svg"
   viewBox="0 0 1122.52 793.70001"
   height="793.70001"
   width="1122.52"
   xml:space="preserve"
   id="svg2"
   version="1.1"><metadata
     id="metadata8"><rdf:RDF><cc:Work
         rdf:about=""><dc:format>image/svg+xml</dc:format><dc:type
           rdf:resource="http://purl.org/dc/dcmitype/StillImage" /></cc:Work></rdf:RDF></metadata><defs
     id="defs6"><clipPath
       id="clipPath18"
       clipPathUnits="userSpaceOnUse"><path
         id="path16"
         d="M 0,595.275 H 841.89 V 0 H 0 Z" /></clipPath></defs><g
     transform="matrix(1.3333333,0,0,-1.3333333,0,793.7)"
     id="g10"><g
       id="g12"><g
         clip-path="url(#clipPath18)"
         id="g14"><g
           transform="translate(605.5,294.4004)"
           id="g20"><path
             id="path22"
             style="fill:#1d2323;fill-opacity:1;fill-rule:nonzero;stroke:none"
             d="m 0,0 c 0,-101.896 -82.604,-184.5 -184.5,-184.5 -101.896,0 -184.5,82.604 -184.5,184.5 0,101.896 82.604,184.5 184.5,184.5 C -82.604,184.5 0,101.896 0,0" /></g><g
           transform="translate(403.1357,398.2046)"
           id="g24"><path
             id="path26"
             style="fill:#41c0d1;fill-opacity:1;fill-rule:evenodd;stroke:none"
             d="M 0,0 17.81,10.282 35.618,0 l 0.687,-0.396 4.309,-2.491 6.421,3.707 -16.617,-9.594 -2.261,-1.305 v -2.599 -18.158 10e-4 -10.421 -10e-4 L 17.81,-47.23 7.461,-41.257 v 10.421 10.391 7.767 2.599 L 5.2,-8.774 -4.99,-2.891 -0.683,-0.404 Z M 49.632,2.319 40.823,7.405 H 40.805 L 40.105,7.808 20.053,19.386 17.81,20.682 15.565,19.386 -4.487,7.808 -5.187,7.405 h -0.018 l -8.809,-5.086 -18.399,10.623 -9.045,5.223 V 10.343 7.745 2.163 -13.013 -23.433 -44.887 -55.293 l 2.261,-1.311 0.149,-0.085 12.229,-7.061 v -22.137 -2.599 l 2.261,-1.306 19.353,-11.173 h 0.018 l 0.7,-0.404 20.052,-11.578 2.245,-1.296 2.243,1.296 20.052,11.578 0.7,0.404 h 0.018 l 19.353,11.173 2.262,1.306 v 2.599 22.137 l 12.229,7.061 0.148,0.085 2.261,1.317 v 10.4 21.454 10.432 20.746 2.598 2.174 5.648 l -9.045,-5.223 z m -12.43,-22.764 h 0.001 v -15.589 l 18.449,10.652 h 0.019 l 12.36,7.136 V 2.522 L 37.202,-15.276 Z m 0.001,-25.998 v -0.005 h -0.009 l -9.037,-5.229 -2.232,-1.289 -8.115,-4.686 -9.025,5.21 -1.324,0.765 -9.044,5.222 -2.904,1.686 h -0.018 l -0.7,0.406 -19.353,11.172 -7.855,4.546 V -50.1 l 12.378,-7.146 10.744,-6.203 7.708,-4.449 9.044,-5.223 10.349,-5.975 10.347,5.975 9.045,5.223 7.707,4.449 10.743,6.203 12.379,7.146 v 21.455 l -7.859,-4.538 -19.349,-11.18 -0.7,-0.406 h -0.018 z m -38.786,10.409 v 10.42 5.169 5.169 l -30.83,17.798 v -20.758 l 12.361,-7.146 h 0.017 z m 19.393,-53.482 2.26,1.306 29.363,16.952 3.96,2.286 V -83.289 L 36.305,-93.164 35.618,-93.561 17.81,-103.842 0,-93.561 l -0.683,0.405 -17.091,9.867 v 14.317 l 3.96,-2.286 29.362,-16.952 z" /></g></g></g><text
       id="text30"
       style="font-variant:normal;font-weight:normal;font-stretch:normal;font-size:46px;font-family:'Odin V1';-inkscape-font-specification:OdinV1Regular;writing-mode:lr-tb;fill:#f9f7f3;fill-opacity:1;fill-rule:nonzero;stroke:none"
       transform="matrix(1,0,0,-1,312.4067,203.5303)"><tspan
         id="tspan28"
         y="0"
         x="0 72.220001">od</tspan></text>
<text
       id="text34"
       style="font-variant:normal;font-weight:normal;font-stretch:normal;font-size:47px;font-family:'Odin V1';-inkscape-font-specification:OdinV1Regular;writing-mode:lr-tb;fill:#f9f7f3;fill-opacity:1;fill-rule:nonzero;stroke:none"
       transform="matrix(1,0,0,-1,434.2144,203.5303)"><tspan
         id="tspan32"
         y="0"
         x="0">i</tspan></text>
<text
       id="text38"
       style="font-variant:normal;font-weight:normal;font-stretch:normal;font-size:45px;font-family:'Odin V1';-inkscape-font-specification:OdinV1Regular;writing-mode:lr-tb;fill:#f9f7f3;fill-opacity:1;fill-rule:nonzero;stroke:none"
       transform="matrix(1,0,0,-1,464.3882,203.5303)"><tspan
         id="tspan36"
         y="0"
         x="0">n</tspan></text>
</g></svg>